<?xml version="1.0" standalone="no"?>
<!DOCTYPE svg PUBLIC "-//W3C//DTD SVG 1.1//EN" "http://www.w3.org/Graphics/SVG/1.1/DTD/svg11.dtd" >
<!--
2013-9-30: Created.
-->
<svg>
<metadata>
Created by iconfont
</metadata>
<defs>

<font id="iconfont" horiz-adv-x="1024" >
  <font-face
    font-family="iconfont"
    font-weight="500"
    font-stretch="normal"
    units-per-em="1024"
    ascent="896"
    descent="-128"
  />
    <missing-glyph />
    
    <glyph glyph-name="xiaoxitongzhi" unicode="&#59076;" d="M374.563974 223.747834 1550.023701 752.930716 220.102944 302.793252 400.332798-144.996779 374.563974 223.747834ZM454.572535-212 687.104171 1.112107 435.749969 179.798377 454.572535-212ZM458.402413 214.91735 880.075738-65.918927 895.818748-76.357579C915.225922-87.346123 937.625188-93.635191 961.497485-93.635191 999.676589-93.635191 1034.094861-77.582123 1058.501131-51.857474L1076.366225-28.387831 1706.666667 812 458.402413 214.91735ZM58.617397 582.733165 58.617397 582.562191C25.423582 577.3729 0 548.640034 0 513.867627 0 488.078285 14.012201 465.620625 34.768117 453.592375 34.75891 453.564651 34.745101 453.541545 34.735895 453.51382L168.850697 366.053709 1559.883797 808.603625 58.617397 582.733165Z"  horiz-adv-x="1707" />

    
    <glyph glyph-name="count-copy" unicode="&#58880;" d="M546.395 659.675l-269.131-259.293 272.3 183.923 277.302-77.538 213.938 176.586 63.531-55.36 1.334 183.089-184.59-16.341 61.363-53.693-165.581-145.905zM578.078-42.668h227.945l1.667 447.552-229.612 61.030v-508.582zM304.611-42.668h227.945v500.244l-227.945-155.076v-345.169zM851.711-42.668h227.945v634.643l-227.945-186.591v-448.052z"  horiz-adv-x="1378" />

    
    <glyph glyph-name="xinwen" unicode="&#58921;" d="M998.592 351.68l-138.112 440.576L156.16 642.88l33.088-109.504L24 489.728c0 0 77.12-245.888 127.872-408.064 50.816-162.048 173.504-85.12 173.504-85.12s532.288 223.872 613.12 257.984C1014.784 286.528 998.592 351.68 998.592 351.68zM207.808 108.736 102.656 443.968l106.24 24.576 129.344-433.344 45.312 27.52C239.424-14.656 207.808 108.736 207.808 108.736zM918.464 290.496c0 0-101.184-39.232-219.008-87.552L623.872 443.904 376.448 366.656l83.52-266.624c-24.64-11.52-46.784-22.144-65.28-31.616L265.216 481.472l0 0L229.12 596.928l614.528 141.504c0 0 95.232-304.384 114.048-364.352S918.464 290.496 918.464 290.496zM880.576 509.76 675.2 444.608 691.264 393.216 895.552 462.08ZM701.504 360.576 717.504 309.248 920 384.064 905.024 431.744ZM418.048 589.76l12.992-41.344c6.72-21.44 13.44-40.448 21.184-58.688L451.776 489.6c-11.712 14.144-25.6 29.632-39.04 42.368l-47.424 44.8L325.056 566.784l45.824-146.24 31.296 9.28L388.48 473.472c-7.36 23.68-14.208 43.904-21.312 62.912L368 536.64C380.352 521.6 396.224 505.664 409.856 492.672l48.448-46.272 33.792 9.984L448.064 597.12 418.048 589.76zM542.592 499.328 532.288 531.968 581.824 545.664 574.016 570.624 524.352 557.504 515.392 586.112 568.064 599.616 560.128 624.768 476.032 604.032 519.68 464.576 605.44 489.792 597.504 515.008ZM672.704 571.584c-1.216 14.144-3.136 27.136-5.504 42.56l0.384 0.064c6.272-14.592 12.032-26.304 18.56-38.912l28.032-53.376 29.504 8.64-9.664 136.96-27.52-6.784 6.656-55.296c2.432-16.192 4.416-32.128 7.168-47.104L720 558.208c-6.4 13.952-12.608 27.328-20.16 41.792l-27.008 52.48-29.952-7.36 6.208-56.768c1.984-17.344 4.032-34.112 6.592-49.152l-0.448-0.064c-6.272 12.864-14.272 29.312-22.144 44.48L606.144 636.096 574.656 628.352l72.768-126.144 31.296 9.28L672.704 571.584zM798.144 604.288c15.168-1.408 22.08-4.352 24.512-12.224 2.56-8.128-1.92-15.232-13.696-18.688-10.944-3.072-23.104-2.304-31.232-0.256l2.112-25.216c7.744-2.112 21.952-2.24 35.008 1.664 30.72 9.088 39.168 30.912 32.704 51.712-5.44 17.536-18.048 26.496-40.384 29.376-16.832 2.176-24.32 4.032-26.688 12.096-1.984 6.4 1.6 13.568 12.8 16.384 10.88 2.816 20.032 1.408 25.216 0l-1.344 24.128c-7.744 1.728-17.728 2.24-30.784-0.896-26.88-6.592-38.592-27.2-31.808-49.024C760.32 614.976 776.768 606.656 798.144 604.288z"  horiz-adv-x="1024" />

    
    <glyph glyph-name="luntan" unicode="&#58884;" d="M229.804 619.224c60.703 0 109.843-49.14 109.843-109.843s-49.14-109.843-109.843-109.843c-60.703 0-109.843 49.14-109.843 109.843 0.723 60.703 49.863 109.843 109.843 109.843v0zM229.804 386.529c122.128 0 221.855-138.027 229.804-312.186h-459.608c8.672 174.159 108.398 312.186 229.804 312.186v0zM486.346 439.283c141.64 0 256.542-150.312 256.542-336.757 0-9.394 0-19.512-0.723-28.906l-265.214 0v0.723c-4.336 91.054-32.519 172.714-75.879 231.249-20.234 26.738-42.637 49.14-67.929 65.761 42.637 43.359 95.39 67.929 153.203 67.929v0zM794.196 386.529c122.128 0 221.855-138.027 229.804-312.186h-265.214c0 4.336 0.723 8.672 0.723 13.73 0 6.504 0 11.562 0 15.176 0 93.945-28.906 179.941-75.156 243.534 33.242 25.293 70.097 39.746 109.843 39.746v0zM794.196 620.669c60.703 0 109.843-49.14 109.843-109.843s-49.14-109.843-109.843-109.843c-60.703 0-109.843 49.14-109.843 109.843 0 60.703 49.14 109.843 109.843 109.843v0zM486.346 722.563c72.265 0 130.8-58.535 130.8-130.8s-58.535-130.8-130.8-130.8c-72.265 0-130.8 58.535-130.8 130.8 0 72.265 58.535 130.8 130.8 130.8v0z"  horiz-adv-x="1024" />

    
    <glyph glyph-name="more-a" unicode="&#59104;" d="M126.678 613.493h772.556c27.629 0 50.1 24.871 50.1 55.449s-22.473 55.449-50.1 55.449h-772.556c-27.618 0-50.090-24.871-50.090-55.449s22.471-55.449 50.090-55.449zM899.231 439.449h-772.555c-27.618 0-50.090-24.871-50.090-55.449s22.473-55.449 50.090-55.449h772.556c27.629 0 50.1 24.881 50.1 55.449s-22.48 55.449-50.101 55.449zM899.231 154.507h-772.555c-27.618 0-50.090-24.881-50.090-55.449s22.473-55.449 50.090-55.449h772.556c27.629 0 50.1 24.871 50.1 55.449s-22.48 55.449-50.101 55.449z"  horiz-adv-x="1024" />

    
    <glyph glyph-name="xiaoxishuzijiaobiao" unicode="&#59017;" d="M512 691.2c-168.96 0-307.2-138.24-307.2-307.2s138.24-307.2 307.2-307.2 307.2 138.24 307.2 307.2-138.24 307.2-307.2 307.2z m51.2-486.4H491.52v256H404.48v51.2c10.24 0 25.6 0 35.84 5.12 10.24 0 20.48 5.12 30.72 10.24 10.24 5.12 15.36 10.24 25.6 20.48 5.12 0 10.24 10.24 15.36 20.48h51.2v-363.52z"  horiz-adv-x="1024" />

    
    <glyph glyph-name="shouji" unicode="&#58901;" d="M409.6 793.6h204.8v-819.2H409.6z"  horiz-adv-x="1024" />

    
    <glyph glyph-name="zhuye1" unicode="&#58625;" d="M943.162 344.904c-98.565 80.702-196.666 161.87-294.999 242.881-45.205 37.205-90.41 74.41-135.694 111.771-3.962-2.874-7.301-5.204-10.485-7.767-141.442-116.665-283.038-233.25-424.169-350.303-5.204-4.35-8.854-13.748-8.932-20.816-0.544-118.14-0.466-236.356-0.31-354.496 0-36.661 19.34-55.614 56.39-55.614 90.954-0.078 181.83 0 272.786 0 4.894 0 9.787 0.544 16.001 0.932 0 98.721 0 196.123 0 294.223 65.943 0 130.49 0 196.433 0 0-97.79 0-195.267 0-295.233 7.457 0 12.428 0 17.476 0 89.945 0 179.811 0 269.756 0 39.769 0 58.177 18.485 58.177 58.642 0.078 116.121-0.156 232.24 0.234 348.283 0.078 11.962-3.418 19.807-12.66 27.495zM978.623 505.845c-35.7 29.7-71.04 59.82-107.4 88.68-12.36 9.78-17.1 19.8-16.92 35.82 0.96 71.82 0.48 143.7 0.42 215.52 0 17.46-5.52 24.54-20.16 24.66-37.32 0.3-74.64 0.3-111.96 0-13.14-0.12-19.5-6.6-19.98-19.98-0.48-11.88-0.18-23.82-0.18-35.7 0-25.32 0-50.64 0-78.78-6 4.8-9.36 7.44-12.66 10.2-41.4 34.62-82.8 69.24-124.26 103.86-36.42 30.3-70.44 30.36-106.92 0-75.96-63.18-151.86-126.48-227.82-189.72-61.56-51.3-123.12-102.66-184.74-153.96-17.82-14.88-18.42-22.38-3.24-40.38 8.7-10.32 17.28-20.7 25.98-31.02 13.02-15.42 21.6-16.2 37.08-3.24 102.06 85.14 204.12 170.4 306.24 255.54 33.12 27.66 66.36 55.32 99.9 83.28 33.48-27.9 66.42-55.32 99.3-82.74 102.36-85.44 204.78-170.88 307.14-256.32 15.3-12.78 23.82-11.88 36.96 3.72 8.94 10.62 17.82 21.3 26.76 31.92 13.98 16.62 13.26 24.66-3.54 38.64z"  horiz-adv-x="1025" />

    
    <glyph glyph-name="fabuxiaoxi" unicode="&#58940;" d="M685.943976 114.012349a109.172537 109.172537 0 0 0-52.85845-26.685198l-203.562626-40.827713a112.244214 112.244214 0 0 0-98.101699 26.685198 101.365357 101.365357 0 0 0-14.974428 17.470165H191.979842a33.020533 33.020533 0 1 0 0 65.849086h109.172537c0.38396 2.495738 0.831913 4.991476 1.407852 7.487214L324.125967 256.013439H191.979842a33.020533 33.020533 0 1 0 0 65.849085h147.568505l7.103255 30.524795a96.693847 96.693847 0 0 0 28.860969 48.95486l21.629729 19.965904H191.979842a33.020533 33.020533 0 1 0 0 65.849085h276.322986L575.939526 586.538733H191.979842a33.020533 33.020533 0 1 0 0 65.849086h454.928233l169.454207 156.783538a211.177826 211.177826 0 0 0 20.66983 16.830233A75.576065 75.576065 0 0 1 759.088296 895.946246H110.00445A75.320091 75.320091 0 0 1 31.99664 823.761825v-879.52365A75.320091 75.320091 0 0 1 110.00445-127.946246h649.083846a75.320091 75.320091 0 0 1 78.007809 72.184421v309.599492z m390.359012 648.635893a156.911524 156.911524 0 0 1-209.769974 0L425.747297 354.691077a32.508587 32.508587 0 0 1-9.662986-16.318286l-44.09137-188.332225a31.420701 31.420701 0 0 1 9.662985-30.268822 37.500062 37.500062 0 0 1 32.700567-8.895066l203.498632 40.827713a36.220197 36.220197 0 0 1 17.598152 8.895066c480.589538 444.689308 447.952965 412.820654 459.471756 428.754981A129.13844 129.13844 0 0 1 1119.882412 665.570435a131.378205 131.378205 0 0 1-43.451437 97.013814z m-622.974587-576.515466l27.51711 117.61965 99.509552-92.150324z"  horiz-adv-x="1151" />

    
    <glyph glyph-name="zixunf" unicode="&#58967;" d="M1225.943291 342.119658l-173.892665 553.880342L166.228507 708.131517l41.605431-137.761634L0 515.432681s96.993464-309.142516 161.011727-513.305386 218.267497-107.040596 218.267498-107.040596 669.808785 281.641713 771.246173 324.535237C1246.295174 259.874868 1225.943291 342.119658 1225.943291 342.119658zM231.21284 36.197376L98.925605 458.048102l133.639734 30.914252 162.686249-545.121304 56.998152 34.649723C270.950535-119.017929 231.21284 36.197376 231.21284 36.197376zM1125.14995 264.834029s-127.263669-49.333993-275.458863-110.132021L754.565359 458.048102 443.361892 360.668209l105.044051-335.41963c-30.978656-14.491055-58.865887-27.822826-82.115981-39.802099L303.410499 505.063526l-45.405307 145.232578 772.856291 178.014566s119.985939-383.143506 143.62246-458.303781S1125.14995 264.834029 1125.14995 264.834029z m-47.659471 275.845291L819.163264 458.692149l20.223073-64.404691 256.974716 86.624309z m-225.416418-187.675269l20.158668-64.404691L1127.082091 382.565804l-18.870575 59.960767zM495.91612 641.279447l16.358791-51.974585c8.437015-26.985565 16.938434-50.879706 26.663542-73.807776h-0.579642a626.078 626.078 0 0 1-49.140779 53.327084l-59.638744 56.354105L378.699582 612.61936l57.964222-183.939797 39.351266 11.657249-17.196052 54.872797C449.222719 524.771362 440.59249 550.211215 431.511429 573.976545l1.030475 0.322024a661.049747 661.049747 0 0 1 52.618633-55.32363l60.926837-57.964221 42.507096 12.880938-55.388034 177.048495z m156.632208-113.738684l-12.880938 41.025788 62.279336 17.260458-9.789513 31.365084-62.47255-16.487601L618.285033 636.706714l66.272427 17.002839-9.982728 31.622703-105.752502-25.761876L623.501813 483.809978l107.877857 31.751513-10.047132 31.687108zM816.007434 618.415782c-1.545713 17.775695-3.928686 34.134486-6.955707 53.520298h0.450833c7.857372-18.355337 15.135102-33.104011 23.314498-48.947565l35.358175-67.045283 37.097102 10.884393-12.172486 172.282548-34.649724-8.501419 8.37261-69.557066c3.091425-20.351882 5.538803-40.381741 9.016657-59.252316h-0.386429c-8.050586 17.518076-15.843554 34.392105-25.375448 52.554228l-33.876867 65.821594-37.676744-9.274276 7.792967-71.424802c2.511783-21.83319 5.087971-42.893524 8.308205-61.828503h-0.579642c-7.857372 16.165577-17.968909 36.903888-27.822826 55.967676L732.281336 699.565693l-39.608885-9.660704 91.519065-158.693158 39.351267 11.657249z m157.791492 41.154598c19.321407-1.738927 27.758422-5.474399 30.849847-15.392721s-2.382974-19.321407-17.196052-23.507713a81.085506 81.085506 0 0 0-39.286862-0.322023l2.640593-31.751513a89.586925 89.586925 0 0 1 44.052808 2.125355c38.642815 11.464035 49.269589 38.642815 41.154598 65.048738-6.826897 22.090809-22.670451 33.36163-50.815301 36.968293-21.189143 2.704997-30.592228 5.087971-33.554844 15.199507-2.511783 8.050586 1.996545 17.067243 16.101172 20.609501a62.343741 62.343741 0 0 0 31.751513 0l-1.674522 30.334609a84.112526 84.112526 0 0 1-38.642814-1.09488c-33.812463-8.308205-48.561137-34.198891-39.995313-61.635289 7.020111-23.121284 27.565208-33.619249 54.615177-36.581864z"  horiz-adv-x="1227" />

    
    <glyph glyph-name="gongneng" unicode="&#58643;" d="M62.00016699 731.27314131c0 23.11522559 18.72596953 41.8534998 41.85349981 41.85350068h293.90086757c23.11522559 0 41.8534998-18.72596953 41.85350069-41.85350068v-293.90086758c0-23.11522559-18.72596953-41.8534998-41.85350069-41.8534998H103.8536668c-23.11522559 0-41.8534998 18.72596953-41.8534998 41.8534998V731.27314131zM682.72835469 821.73804932c16.34501338 16.34413448 42.836117 16.35380244 59.18991943 0l207.81906328-207.81906328c16.34413448-16.34501338 16.35380244-42.836117 0-59.18991944L741.91827412 346.91000332c-16.34501338-16.34413448-42.836117-16.35292354-59.18991943 0L474.91017031 554.7281877c-16.34413448 16.34501338-16.35292354 42.836117 0 59.18991943L682.72835469 821.73717041zM523.51981982 269.75436737999996c0 23.11522559 18.72509062 41.8534998 41.85349981 41.85350069H859.2733083c23.11522559 0 41.8534998-18.72596953 41.85350068-41.85350068V-24.14650019999999c0-23.11522559-18.72596953-41.8534998-41.85350068-41.8534998H565.37244072c-23.11522559 0-41.8534998 18.72596953-41.8534998 41.85349981V269.75436737999996zM62.00016699 269.75436737999996c0 23.11522559 18.72596953 41.8534998 41.85349981 41.85350069h293.90086757c23.11522559 0 41.8534998-18.72596953 41.85350069-41.85350068V-24.14650019999999c0-23.11522559-18.72596953-41.8534998-41.85350069-41.8534998H103.8536668C80.73844121-66 62.00016699-47.27403046999996 62.00016699-24.14650019999999V269.75436737999996z"  horiz-adv-x="1024" />

    
    <glyph glyph-name="zuojiantou2" unicode="&#58639;" d="M359.86729405 384l265.01218847-264.99563945-23.04005495-23.05660397-288.05287992 288.05287993 288.05287991 288.05287991 23.04005496-23.05660397z"  horiz-adv-x="1024" />

    
    <glyph glyph-name="touxiang" unicode="&#58916;" d="M410.339556 429.966222a37.944889 37.944889 0 1 0-75.889778 0 37.944889 37.944889 0 0 0 75.889778 0M707.811556 429.966222a37.944889 37.944889 0 1 0-75.889778 0 37.944889 37.944889 0 0 0 75.889778 0M858.055111 144.611556h-111.786667a409.031111 409.031111 0 0 1-103.196444 54.442666c158.663111 60.245333 197.518222 229.660444 197.518222 303.331556a22.983111 22.983111 0 0 1-6.997333 16.440889 23.665778 23.665778 0 0 1-16.725333 6.257777c-252.472889-9.102222-446.520889 130.332444-448.455112 131.754667a22.755556 22.755556 0 0 1-33.223111-6.769778c-35.896889-61.496889-98.702222-94.378667-136.192-114.062222l-10.24-5.404444a22.698667 22.698667 0 0 1-12.003555-20.024889c0-69.973333 40.903111-245.020444 203.093333-309.134222a408.632889 408.632889 0 0 1-108.714667-56.832H159.345778V444.245333a349.752889 349.752889 0 0 0 349.354666 349.297778 349.752889 349.752889 0 0 0 349.354667-349.297778v-299.633777zM223.402667 497.379556c35.783111 18.773333 95.914667 51.370667 137.784889 109.283555 54.954667-35.612444 217.486222-127.601778 428.088888-127.601778h3.754667c-8.533333-67.185778-52.736-256.227556-277.504-256.227555-245.589333 0-285.923556 218.168889-292.124444 274.545778z m680.220444-375.523556V444.245333C903.623111 661.959111 726.471111 839.111111 508.700444 839.111111 290.929778 839.111111 113.777778 661.959111 113.777778 444.245333v-322.389333c0-12.572444 10.24-22.812444 22.755555-22.812444h81.692445a401.237333 401.237333 0 0 1-97.28-165.432889 22.869333 22.869333 0 0 1 43.690666-13.027556 360.846222 360.846222 0 0 0 344.064 256.682667c157.809778 0 299.292444-105.472 344.064-256.625778a22.926222 22.926222 0 0 1 28.273778-15.36 22.812444 22.812444 0 0 1 15.416889 28.273778 400.839111 400.839111 0 0 1-97.28 165.489778h81.635556c12.572444 0 22.812444 10.24 22.812444 22.812444z"  horiz-adv-x="1024" />

    
    <glyph glyph-name="jinrong" unicode="&#58941;" d="M517.668571 384m-512 0a512 512 0 1 1 1024 0 512 512 0 1 1-1024 0ZM616.813714 362.130286a25.490286 25.490286 0 1 1 0 50.907428h-51.382857l55.296 76.288a25.380571 25.380571 0 1 1-41.142857 29.878857l-65.389714-90.148571-65.353143 90.148571a25.380571 25.380571 0 0 1-35.510857 5.632 25.380571 25.380571 0 0 1-5.668572-35.510857l55.259429-76.288h-54.198857a25.417143 25.417143 0 0 1 0-50.907428h78.628571v-50.651429h-78.628571a25.453714 25.453714 0 0 1 0-50.907428h78.628571v-61.586286a25.453714 25.453714 0 0 1 50.870857 0v61.586286h78.592a25.490286 25.490286 0 0 1 0 50.907428h-78.592v50.651429h78.592zM512.768 653.677714c-161.28 0-292.571429-131.254857-292.571429-292.571428s131.291429-292.608 292.571429-292.608c161.353143 0 292.571429 131.291429 292.571429 292.608s-131.218286 292.571429-292.571429 292.571428z m0-534.308571c-133.229714 0-241.700571 108.434286-241.700571 241.737143s108.434286 241.664 241.700571 241.664c133.339429 0 241.700571-108.361143 241.700571-241.664s-108.470857-241.737143-241.700571-241.737143z"  horiz-adv-x="1029" />

    
    <glyph glyph-name="biaozhi_huaban" unicode="&#58917;" d="M601.556271-128c-34.583114 0-67.067252 13.493411-91.455344 37.881503L38.731088 381.351293C11.944168 408.038263-1.649195 445.020205 1.24939 482.701806l20.8898 271.567398c4.797657 61.969741 56.972182 114.244217 118.941923 118.941923L412.54856 894.000976c37.681601 2.898585 74.563592-10.794729 101.350513-37.481698l471.46979-471.46979c50.375403-50.375403 50.375403-132.435334 0-182.810737L692.911664-90.118497c-24.388092-24.388092-56.87223-37.881503-91.355393-37.881503zM422.54368 845.724549c-2.098975 0-4.097999-0.099951-6.196974-0.199903l-271.567399-20.989751c-37.981454-2.898585-71.265203-36.182333-74.163787-74.163787L49.825671 478.90366c-1.799122-23.488531 6.69673-46.477306 23.38858-63.169155l471.46979-471.469791c15.192582-15.192582 35.382723-23.588482 56.972182-23.588482 21.289605 0 41.379795 8.195998 56.472425 23.188678l0.399805 0.399804 292.357247 292.357248c31.384675 31.384675 31.384675 82.459736 0 113.944363L479.515861 822.136066a80.494696 80.494696 0 0 1-56.972181 23.588483z m0 0M326.690483 442.721327c-73.763982 0-133.834651 60.070669-133.834651 133.834652s60.070669 133.834651 133.834651 133.834651 133.834651-60.070669 133.834651-133.834651-60.070669-133.834651-133.834651-133.834652z m0 218.893119c-46.977062 0-85.158419-38.181357-85.158419-85.158419s38.181357-85.158419 85.158419-85.158418 85.158419 38.181357 85.158419 85.158418-38.281308 85.158419-85.158419 85.158419z m0 0"  horiz-adv-x="1024" />

    
    <glyph glyph-name="zuoye" unicode="&#58976;" d="M890.88-128H133.12c-49.152 0-88.064 38.912-88.064 88.064V807.936C45.056 857.088 83.968 896 133.12 896h757.76c49.152 0 88.064-38.912 88.064-88.064v-845.824c0-51.2-38.912-90.112-88.064-90.112zM155.648 740.352H133.12c-12.288 0-22.528-10.24-22.528-22.528 0-12.288 10.24-22.528 22.528-22.528h22.528c12.288 0 22.528 10.24 22.528 22.528 0 12.288-10.24 22.528-22.528 22.528z m0-110.592H133.12c-12.288 0-22.528-10.24-22.528-22.528s10.24-22.528 22.528-22.528h22.528c12.288 0 22.528 10.24 22.528 22.528s-10.24 22.528-22.528 22.528z m0-112.64H133.12c-12.288 0-22.528-10.24-22.528-22.528s10.24-22.528 22.528-22.528h22.528c12.288 0 22.528 10.24 22.528 22.528s-10.24 22.528-22.528 22.528z m0-110.592H133.12c-12.288 0-22.528-10.24-22.528-22.528 0-12.288 10.24-22.528 22.528-22.528h22.528c12.288 0 22.528 10.24 22.528 22.528 0 12.288-10.24 22.528-22.528 22.528z m0-110.592H133.12c-12.288 0-22.528-10.24-22.528-22.528 0-12.288 10.24-22.528 22.528-22.528h22.528c12.288 0 22.528 10.24 22.528 22.528 0 12.288-10.24 22.528-22.528 22.528z m0-112.64H133.12c-12.288 0-22.528-10.24-22.528-22.528 0-12.288 10.24-22.528 22.528-22.528h22.528c12.288 0 22.528 10.24 22.528 22.528 0 12.288-10.24 22.528-22.528 22.528z m0-110.592H133.12c-12.288 0-22.528-10.24-22.528-22.528s10.24-22.528 22.528-22.528h22.528c12.288 0 22.528 10.24 22.528 22.528s-10.24 22.528-22.528 22.528zM845.824 803.84c0 14.336-12.288 26.624-26.624 26.624H628.736c-14.336 0-26.624-12.288-26.624-26.624v-260.096c0-14.336 12.288-26.624 26.624-26.624l94.208 51.2 94.208-51.2c14.336 0 26.624 12.288 26.624 26.624V803.84z"  horiz-adv-x="1024" />

    
    <glyph glyph-name="weibo" unicode="&#58910;" d="M511.9091 834c-248.4774 0-449.9091-201.4317-449.9091-449.9118 0-248.4747 201.4317-449.9064 449.9091-449.9064s449.9064 201.4317 449.9064 449.9064C961.8155 632.5683 760.3865 834 511.9091 834zM470.1932 159.8424c-114.9885 0-232.5267 55.7262-232.5267 147.384 0 47.9187 30.3588 103.3317 82.6425 155.6262 69.8121 69.7932 151.2243 101.5857 181.8423 70.9488 13.5099-13.4901 14.8176-36.8676 6.1344-64.7694-4.5261-14.0562 13.1922-6.273 13.1922-6.3036 56.4282 23.625 105.6582 25.0173 123.651-0.693 9.6021-13.7007 8.6832-32.9121-0.1665-55.1763-4.0932-10.2564 1.2591-11.8458 9.0648-14.1894 31.7952-9.8568 67.1823-33.6978 67.1823-75.7098C721.2086 247.42499999999995 620.936 159.8424 470.1932 159.8424zM678.365 451.2813c3.7188 11.4894 1.3887 24.5853-7.281 34.1955-8.6616 9.5913-21.4623 13.2309-33.2676 10.7352l0 0.0207c-9.8469-2.1429-19.5534 4.1778-21.6648 14.0157-2.1168 9.8793 4.1742 19.5939 14.0445 21.6972 24.1497 5.1345 50.3127-2.331 68.0292-21.987 17.7543-19.6533 22.5018-46.4256 14.913-69.9111-3.0978-9.6156-13.3983-14.85-23.0004-11.7765-9.5994 3.1077-14.8491 13.4208-11.7549 23.0103L678.365 451.2813zM784.8233 416.9022c-0.0063-0.0189-0.0063-0.0612-0.0063-0.0819-3.6126-11.1393-15.5835-17.2395-26.7183-13.6341-11.1789 3.609-17.2872 15.5538-13.6791 26.7201l-0.0063 0.0072c11.0736 34.2783 4.0509 73.3815-21.8034 102.0492-25.8777 28.6704-64.0341 39.6216-99.2925 32.1345-11.4687-2.4453-22.7466 4.8753-25.1919 16.3323-2.4552 11.4471 4.8555 22.7295 16.3242 25.1838l0.0207 0c49.5603 10.5372 103.2552-4.8483 139.6593-45.2088C790.5437 520.0862999999999 800.3591 465.1197 784.8233 416.9022zM624.9716 325.7178c-5.9481 60.2181-85.1571 101.6946-176.9229 92.6217-91.746-9.0729-161.3214-65.2491-155.3616-125.4789 5.9607-60.2451 85.1661-101.7216 176.922-92.6667C561.3767 209.2722 630.9224 265.4538 624.9716 325.7178zM528.5546 276.2727c-18.7254-42.3549-72.5859-64.9359-118.2789-50.1993-44.1153 14.238-62.7912 57.7944-43.4763 97.0326 18.9648 38.4714 68.3154 60.2316 111.978 48.8727C523.9646 360.2994 547.0235 317.67269999999996 528.5546 276.2727zM435.1877 308.5386c-14.2074 5.9562-32.5737-0.1683-41.3415-13.9167-8.8758-13.8078-4.7115-30.2517 9.3969-36.6759 14.3136-6.5358 33.318-0.3312 42.1947 13.8285C454.1525 286.07370000000003 449.5634 302.41139999999996 435.1877 308.5386zM470.2067 323.0565c-5.4522 2.1636-12.2688-0.4554-15.4656-5.8185-3.1059-5.3901-1.3923-11.529 4.0716-13.7772 5.5584-2.2878 12.6522 0.3537 15.8616 5.8374C477.737 314.8242 475.7462 321.03060000000005 470.2067 323.0565z"  horiz-adv-x="1024" />

    
    <glyph glyph-name="chengji" unicode="&#58882;" d="M647.168 249.34400000000005c0.512-7.168 4.608-29.696 15.872-28.16 5.12 0.512 12.8 4.608 20.48 9.216-7.168-4.608-14.848-8.192-20.48-9.216-4.608-0.512-8.192 3.072-10.24 7.68 2.048-4.608 5.632-8.192 10.24-7.68 12.288 1.536 35.328 18.432 43.52 27.648l35.328 38.912c14.336 19.968 40.96 65.024 41.472 91.648v1.536c0 1.024 0 2.048-0.512 2.56 0 0.512 0 1.024-0.512 1.536 0 1.536-0.512 3.072-1.536 5.12l1.536-5.632c-0.512 3.584-2.048 8.192-4.096 11.776-0.512 0.512-0.512 1.536-1.024 2.048-0.512 1.024-1.024 1.536-2.048 2.048-2.56 3.072-6.144 5.12-10.752 4.608-3.584-0.512-6.144-2.048-9.216-4.096l-7.68-7.68c-2.56-2.56-4.608-5.12-5.632-5.12h-0.512c1.536 0.512 3.584 2.048 5.632 5.12-2.56-2.56-4.608-5.12-5.632-5.12s-2.048 1.024-3.072 2.048c-1.024 1.536-1.024 3.072-1.024 4.096h-0.512c-65.024-44.544-90.624-100.864-90.112-140.8l0.512-4.096z m-74.752 27.648c-1.024-2.048-2.048-5.12-3.072-7.168 0.512 2.048 1.536 4.608 3.072 7.168z m-3.072-7.168c-1.536-2.56-2.56-5.632-4.096-7.68 1.024 2.048 2.56 4.608 4.096 7.68z m-6.656-11.776c-2.048-3.072-3.584-6.656-5.632-9.728 2.048 3.072 4.096 6.144 5.632 9.728z m2.56 4.096c-1.024-1.536-1.536-2.56-2.048-4.096 0.512 1.536 1.536 2.56 2.048 4.096zM550.4 379.39200000000005c-2.048 1.536-4.096 2.048-6.144 2.56h-2.048c-9.728-1.536-18.944-16.896-23.04-16.896-1.024 0-1.536 0-2.048 0.512 0.512 0 1.024-0.512 2.048 0-1.024 0-2.048 0.512-2.048 1.024-1.536 1.536-2.048 4.096-2.048 5.632h-0.512c-66.048-46.592-91.648-103.936-90.112-143.872v-1.536c0.512-3.584 1.536-11.264 3.584-17.408 0.512-2.048 1.536-3.072 2.048-4.608 0.512-1.536 1.536-2.048 2.048-2.56l-0.512 0.512c2.048-2.56 4.608-4.096 7.68-3.584 5.632 0.512 14.848 5.632 23.552 10.752l2.048 1.536c2.048 1.024 3.072 2.048 4.608 3.072 1.024 1.024 2.048 1.536 2.56 2.048 2.56 2.048 5.632 4.608 7.68 6.144l3.584 3.584 35.328 38.912c14.848 20.48 42.496 68.608 41.472 94.72v2.048c-0.512 4.096-2.048 9.216-4.608 13.312l-5.12 4.096zM550.4 379.39200000000005c-1.024 0.512-2.048 1.536-2.56 2.048 0.512-1.024 1.536-1.536 2.56-2.048zM851.456 834.048H172.544c-60.928 0-110.592-50.176-110.592-110.592v-678.4c0-60.928 50.176-110.592 110.592-110.592h565.76c-32.768 29.184-53.76 72.192-53.76 119.808 0 88.576 71.68 160.768 160.768 160.768 46.08 0 87.552-19.456 116.736-50.176V723.456c0 60.416-50.176 110.592-110.592 110.592zM721.92 567.296c0-5.632-2.56-11.776-6.144-15.36-4.096-4.096-9.728-6.144-15.36-6.144h-440.32c-12.288 0-21.504 9.728-22.016 21.504 0 5.632 2.56 11.776 6.144 15.36 4.096 4.096 9.728 6.144 15.36 6.144h440.32c11.776 0 21.504-9.728 22.016-21.504z m-479.744 138.24c4.096 4.096 9.728 6.144 15.36 6.144h262.144c12.288 0 21.504-9.728 22.016-21.504 0-5.632-2.56-11.776-6.144-15.36-4.096-4.096-9.728-6.144-15.36-6.144H257.536c-12.288 0-20.992 9.728-22.016 21.504-0.512 5.12 2.56 11.264 6.656 15.36z m40.96-442.368c-2.56-6.144-6.656-14.336-10.752-24.064-8.192-17.92-16.896-40.448-20.992-58.88-2.048-7.68-3.072-14.336-3.072-20.48 0-2.048 0-3.584 0.512-5.632 0-0.512 0-0.512 0.512-1.024 0.512-4.096 2.048-7.68 2.048-11.776 0-0.512 0-0.512 0.512-1.024v-1.536c0-0.512-0.512-0.512 0-1.024v-0.512c-0.512-2.048-2.048-3.584-5.12-4.096-2.048-0.512-6.656 2.048-8.704 2.56-17.408 6.656-34.816 7.68-36.864 27.648-0.512 1.536-0.512 2.56-0.512 4.096v0.512c0-1.536 0-2.56 0.512-3.584 0 1.536-0.512 2.56-0.512 4.096 0 20.992 10.752 60.928 19.456 78.336 24.064 50.176 51.2 94.72 61.44 110.592l-1.024 0.512-35.84-17.92 35.84 18.432-35.84-17.92c-2.048-1.536-8.704-5.12-10.24-5.12-3.584-0.512-4.096 4.096-4.096 6.656v2.048c-0.512 11.264 7.168 15.36 16.384 22.016 12.288 9.216 53.76 39.424 65.024 40.448 9.728 1.536 20.48-18.944 20.992-24.576 0.512-1.536 0.512-2.56 0.512-4.096-0.512-7.68-6.144-18.432-50.176-114.688z m297.472 35.328c2.048 6.144 3.072 12.288 4.608 17.92-1.536-5.632-3.072-12.288-4.608-17.92z m-3.584-9.728c1.024 3.072 2.048 5.632 3.072 8.704-18.432-60.928-68.096-121.344-136.704-134.144-3.584-0.512-6.144-1.024-9.728-1.024-31.232 0.512-52.224 30.208-55.296 60.416-5.12 43.52 18.432 94.72 44.032 129.536 18.432 24.064 46.08 47.104 70.656 61.952 0 0 0.512 0.512 1.024 0.512s0.512 0 1.024 0.512l2.048 1.536c5.632 2.56 9.728 5.632 14.336 7.68h0.512s0.512 0 0.512 0.512l2.56 1.536c0.512 0.512 0.512 0.512 1.024 0.512l2.048 1.024 2.048 1.024c0.512 0 0.512 0.512 1.024 0.512 6.144 2.56 12.288 4.096 16.896 4.608h1.024c16.384 1.536 37.376-14.848 38.4-23.552 0-1.536-1.536-2.56-2.56-3.584-3.072-1.536-7.168-2.56-9.216-4.608 3.584-0.512 6.144-2.048 9.216-3.584 10.752-7.168 13.824-22.016 15.36-34.816-0.512-23.552-4.096-49.664-13.312-75.264z m90.112-101.888c-3.584-0.512-6.656-1.024-9.216-1.024-31.232 0.512-52.224 30.208-55.296 60.416-5.12 43.52 18.432 94.72 44.032 129.536 5.12 6.144 10.24 12.8 16.896 18.944l2.56 2.56 1.024 1.024c31.744 31.232 72.704 55.808 93.696 57.856h0.512v0.512c11.776 0.512 24.064-6.656 31.744-13.824 3.072-3.072 5.632-6.656 5.632-9.216 0.512-4.096-9.216-5.12-11.264-8.192 18.432-3.584 22.528-22.528 24.064-38.4 7.68-74.752-49.664-183.296-144.384-200.192zM929.792 83.96799999999996h-58.88v58.88c0 13.312-10.752 24.064-24.064 24.064s-24.064-10.752-24.064-24.064v-58.88h-58.88c-13.312 0-24.064-10.752-24.064-24.064s10.752-24.064 24.064-24.064h58.88v-58.88c0-13.312 10.752-24.064 24.064-24.064s24.064 10.752 24.064 24.064V35.84000000000003h58.88c13.312 0 24.064 10.752 24.064 24.064s-10.752 24.064-24.064 24.064z"  horiz-adv-x="1024" />

    
    <glyph glyph-name="shuxian" unicode="&#58919;" d="M419.99872 801.28H576v-819.2H419.99872v819.2z"  horiz-adv-x="1024" />

    
    <glyph glyph-name="hulianwangjinrong" unicode="&#58887;" d="M512 877.83424C784.73216 877.83424 1005.83424 656.71168 1005.83424 384S784.73216-109.83424 512-109.83424 18.16576 111.28832 18.16576 384 239.26784 877.83424 512 877.83424z m194.06848-157.75744l17.63328 30.67904A423.19872 423.19872 0 0 1 512 807.56736C278.07744 807.56736 88.41216 617.92256 88.41216 384a423.5264 423.5264 0 0 1 211.88608-366.75584l17.63328 30.69952A386.19136 386.19136 0 0 1 512-4.01408c214.3232 0 388.01408 173.71136 388.01408 388.01408a387.8912 387.8912 0 0 1-193.9456 336.0768zM512-128C229.6832-128 0 101.6832 0 383.97952 0 666.3168 229.6832 896 512 896s512-229.6832 512-512.02048C1024 101.6832 794.3168-128 512-128z m0 987.68896c-262.30784 0-475.68896-213.4016-475.68896-475.70944 0-262.28736 213.38112-475.66848 475.68896-475.66848s475.68896 213.38112 475.68896 475.66848C987.68896 646.28736 774.30784 859.68896 512 859.68896zM676.06528 493.60896h-69.46816c0 33.01376-25.78432 61.46048-62.93504 74.30144v-157.02016c88.73984-7.24992 157.71648-64.28672 157.71648-133.7344 0-69.36576-68.97664-126.44352-157.71648-133.67296v-33.87392h-63.3856V658.41152h63.3856v-34.59072c76.12416-15.01184 132.4032-67.62496 132.4032-130.21184z m-44.15488-216.45312c0 40.2432-38.03136 73.44128-88.2688 80.32256v-160.5632c50.23744 6.7584 88.2688 40.12032 88.2688 80.24064zM444.66176 222.96576v-65.67936c-57.344 22.20032-96.62464 67.60448-96.62464 119.88992h69.46816c0-20.74624 10.3424-39.77216 27.15648-54.21056zM444.66176 423.38304v-57.6512c-70.8608 17.53088-122.04032 68.1984-122.04032 127.87712 0 59.71968 51.17952 110.3872 122.04032 127.8976v-57.7536c-31.4368-14.19264-52.59264-40.30464-52.59264-70.144 0-29.88032 21.15584-55.88992 52.59264-70.22592z"  horiz-adv-x="1024" />

    
    <glyph glyph-name="touxiang1" unicode="&#58912;" d="M512 888.32C232.96 888.32 7.68 663.04 7.68 384 7.68 104.96 234.24-120.32 512-120.32c279.04 0 504.32 226.56 504.32 504.32C1016.32 663.04 791.04 888.32 512 888.32zM512-102.4c-126.72 0-241.92 48.64-330.24 125.44 8.96 165.12 138.24 295.68 302.08 308.48C398.08 345.6 332.8 419.84 332.8 508.16c0 98.56 80.64 179.2 179.2 179.2s179.2-80.64 179.2-179.2c0-89.6-65.28-162.56-151.04-176.64 163.84-12.8 293.12-143.36 302.08-308.48-88.32-76.8-203.52-125.44-330.24-125.44z m0 0"  horiz-adv-x="1024" />

    
    <glyph glyph-name="xinxiguanlicopy" unicode="&#58888;" d="M657.635556-53.248v135.623111H359.424v-135.623111l-61.041778-33.905778s-20.309333-33.848889 6.826667-33.848889h393.216s27.136 13.539556 13.539555 27.079111c-6.769778 13.596444-54.215111 40.675556-54.215111 40.675556zM915.342222 896H101.717333C47.445333 896 0 848.554667 0 794.282667v-576.284445c0-54.272 47.445333-101.717333 101.717333-101.717333h820.337778c54.272 0 101.774222 47.445333 101.774222 101.717333V794.282667C1017.002667 848.554667 969.557333 896 915.342222 896z m33.905778-654.791111c0-7.395556-27.136-12.288-67.811556-12.288H128.796444c-33.848889 0-60.984889 6.087111-60.984888 12.231111v73.671111c0 7.395556 27.136 12.288 67.811555 12.288h752.583111c33.905778 0 67.811556-6.144 67.811556-12.288v-73.671111h-6.826667z m-339.057778 440.490667h135.623111V613.831111h-135.623111V681.699556z m0-135.623112h203.434667v-67.811555h-203.434667V546.133333z m-474.567111 13.539556l6.769778 6.826667c0 6.769778 6.769778 6.769778 6.769778 6.769777 6.826667 0 13.539556 6.769778 20.366222 13.539556 6.769778 6.826667 6.769778 20.366222 6.769778 27.136 0 13.539556-6.826667 20.309333-13.596445 27.136-6.769778 6.769778-13.539556 13.539556-20.309333 13.539556l-6.826667 6.826666v13.482667c0 6.826667 0 6.826667 6.826667 13.596444 6.769778 6.769778 6.769778 13.539556 13.539555 20.309334 0 6.826667 6.826667 6.826667 6.826667 6.826666h6.769778c6.769778-6.826667 13.539556-6.826667 27.079111-6.826666 13.596444 0 20.366222 6.826667 27.136 13.596444 6.826667 6.769778 13.539556 20.309333 13.539556 27.136V790.186667c0 6.769778 0 13.539556 6.826666 13.539555 6.769778 0 6.769778 6.826667 13.539556 6.826667 6.826667 6.712889 6.826667 6.712889 13.539555 6.712889h13.596445s6.769778 0 6.769778-6.769778c6.826667 0 6.826667-6.769778 6.826666-6.769778 0-6.826667 6.712889-13.539556 13.482667-20.366222 6.826667-6.769778 13.596444-6.769778 27.136-6.769778 13.596444 0 20.366222 0 27.136 6.826667 6.826667 6.769778 13.539556 13.539556 13.539555 20.309333l6.826667 6.826667c0 6.712889 0 6.712889 6.769778 6.712889h13.539555c6.826667 0 13.539556-6.769778 20.366223 0 6.769778 0 6.769778-6.769778 13.539555-6.769778 0-6.769778 6.826667-6.769778 6.826667-13.539556v-47.445333c0-6.826667 0-6.826667 6.712889-13.596444 6.826667-6.769778 20.366222-13.539556 27.136-13.539556 6.826667-6.826667 20.366222-6.826667 27.136 0h13.596444s6.712889 0 6.712889-6.826667c0-6.769778 6.826667-6.769778 6.826667-13.539555 6.769778-6.769778 6.769778-6.769778 6.769778-13.539556v-20.366222c0-6.769778-6.826667-6.769778-6.826667-6.769778-13.539556-6.826667-20.309333-13.539556-20.309333-20.309333-6.826667-6.826667-13.539556-13.596444-13.539556-27.136 0-6.826667 0-20.366222 13.539556-20.366222 6.826667-13.539556 13.539556-13.539556 20.309333-20.309334 0 0 6.826667-6.826667 6.826667-13.596444v-13.539556c0-6.826667-6.826667-13.539556-6.826667-27.136 0-6.769778-6.769778-6.769778-6.769778-13.539555l-6.769778-6.826667H508.586667c-6.826667 6.826667-13.596444 6.826667-20.366223 6.826667h-13.539555c-6.826667 0-13.596444 0-20.366222-6.826667-6.769778-13.539556-13.539556-20.309333-13.539556-27.079111 0-6.826667 6.826667-13.539556 6.826667-20.366222v-20.366222s0-6.712889-6.826667-6.712889-6.826667-6.826667-13.539555-6.826667c0-6.769778-6.826667-6.769778-13.596445-6.769778h-27.136s-6.769778 0-6.769778 6.826667c0 13.539556-6.769778 20.309333-13.539555 27.079111-6.826667 6.826667-20.366222 6.826667-27.136 6.826667s-20.309333 0-27.136-13.596445c-6.769778-6.826667-13.539556-13.539556-13.539556-20.309333l-6.826666-6.826667h-20.309334c-6.769778 0-13.539556 6.826667-20.309333 6.826667-6.826667 0-6.826667 6.769778-13.596445 6.769778l-6.769777 6.769778V451.128889c6.826667 6.826667 6.826667 20.366222 6.826666 27.136 0 6.826667-6.826667 13.596444-13.596444 27.136-6.826667 0-6.826667 6.826667-13.539556 6.826667H155.875556s-6.769778 0-6.769778 6.712888c0 6.826667-6.826667 6.826667-6.826667 13.596445-6.712889 6.769778-6.712889 6.769778-6.712889 13.539555v13.539556z m203.377778-40.675556c-13.539556 0-27.136 0-33.905778 6.826667-13.539556 6.769778-27.079111 13.539556-33.905778 20.309333-6.769778 6.826667-13.539556 20.366222-20.309333 27.136-6.826667 13.539556-6.826667 27.079111-6.826667 40.675556 0 13.539556 0 27.136 6.826667 33.905778 6.769778 13.539556 13.539556 27.079111 20.309333 33.905778 6.826667 6.769778 20.366222 13.539556 33.905778 20.309333 6.826667 6.826667 20.366222 6.826667 33.905778 6.826667 13.596444 0 27.136 0 33.905778-6.826667 13.539556-6.769778 27.136-13.539556 33.905777-20.309333 6.826667-6.826667 13.539556-20.366222 20.366223-27.136 6.769778-13.539556 6.769778-27.136 6.769777-40.675556 0-13.596444 0-27.136-6.826666-33.905778-6.769778-13.539556-13.539556-27.136-20.309334-33.905778-6.826667-6.826667-20.366222-13.539556-27.136-20.366222-13.539556-6.769778-27.079111-6.769778-40.675555-6.769778z"  horiz-adv-x="1024" />

    
    <glyph glyph-name="wode" unicode="&#59086;" d="M862.72-15.36H161.792c-14.336 0-29.184 7.168-37.888 17.92-9.216 12.8-12.8 27.136-9.216 41.472C151.04 227.84 301.056 364.544 482.304 378.88c60.416 0 126.464-7.68 192-34.304 18.944-7.68 25.6-12.8 36.352-17.92 104.96-59.392 177.664-161.792 201.216-282.624 3.584-14.336 0-28.672-10.752-41.472-9.216-10.752-24.064-17.92-38.4-17.92zM490.454 373.952a206.848 206.848 0 1 1 45.138 411.226 206.848 206.848 0 1 1-45.138-411.226z"  horiz-adv-x="1024" />

    
    <glyph glyph-name="suoyouchengyuan" unicode="&#58902;" d="M532.821333 342.016c76.117333 44.714667 127.317333 127.658667 127.317334 222.208 0 142.336-115.370667 257.706667-257.706667 257.706667S144.725333 706.901333 144.725333 564.565333c0-94.549333 51.2-177.493333 127.317334-222.208C115.712 288.426667 3.413333 141.312 1.365333-32.426667h63.146667c2.389333 184.661333 152.917333 333.482667 337.92 333.482667s335.530667-148.821333 337.92-333.482667h63.146667c-2.048 173.738667-114.688 320.853333-270.677334 374.442667zM207.530667 564.565333c0 107.52 87.04 194.901333 194.901333 194.901334S597.333333 672.426667 597.333333 564.565333s-87.04-194.901333-194.901333-194.901333-194.901333 87.04-194.901333 194.901333zM768.682667 338.944c66.218667 46.762667 109.226667 123.562667 109.226666 210.602667 0 142.336-115.370667 257.706667-257.706666 257.706666-5.802667 0-11.264-0.341333-16.725334-0.682666l10.24-62.464h6.485334c107.52 0 194.901333-87.04 194.901333-194.901334 0-88.064-58.368-162.474667-138.581333-186.368v-1.024c-2.048 0.341333-4.096 0.682667-6.144 0.682667l5.802666-64.512c160.426667-24.917333 283.648-162.474667 286.037334-329.386667h63.146666c-1.706667 169.301333-107.861333 313.002667-256.682666 370.346667z"  horiz-adv-x="1025" />

    
    <glyph glyph-name="laoshi" unicode="&#59047;" d="M590.27911111 32.89694814999996c-15.4130963 1.82044445-21.9666963 15.89854815-21.96669629 24.75804444L673.65546667 433.75881482c2.18453333 12.37902222 19.78216297 17.71899259 30.70482963 17.71899259 15.4130963-1.82044445 21.9666963-15.89854815 21.96669629-24.75804444l-105.34305184-376.22518519c-2.18453333-7.03905185-13.1072-17.59762963-24.15122964-17.59762963h-6.5536z m285.20296297 675.0208c0-17.11217778-12.25765925-31.06891852-27.42802963-31.06891852h-294.912c-15.17037037 0-27.42802963 13.83537778-27.42802963 31.06891852 0 17.11217778 12.25765925 31.06891852 27.42802963 31.06891852h294.912c15.04900741-0.12136297 27.42802963-13.95674075 27.42802963-31.06891852z m0-148.7909926c0-17.11217778-12.25765925-31.06891852-27.42802963-31.06891852H700.23395555c-15.17037037 0-27.42802963 13.83537778-27.42802963 31.06891852 0 17.11217778 12.25765925 31.06891852 27.42802963 31.06891853h147.69872593c15.17037037-0.12136297 27.54939259-13.95674075 27.5493926-31.06891853z m0 0M708.48663703-17.468681479999987c-18.56853333 0-33.49617778-15.04900741-33.49617778-33.49617777 0-18.44717037 15.04900741-33.49617778 33.49617778-33.49617778h134.10607408c92.47857778 0 167.72361482 79.97819259 167.72361481 178.52491851V674.42157037c0 98.42536297-75.24503703 178.52491852-167.72361481 178.52491852H239.0546963c-92.47857778 0-167.72361482-80.09955555-167.72361482-178.52491852v-55.82696296c0-18.44717037 15.04900741-33.49617778 33.49617777-33.49617778 18.56853333 0 33.49617778 15.04900741 33.49617778 33.49617778v55.82696296c0 61.40965925 45.14702222 111.53256297 100.6098963 111.53256296h603.65937778c55.46287408 0 100.6098963-50.1229037 100.6098963-111.53256296v-580.35768889c0-61.40965925-45.14702222-111.53256297-100.6098963-111.53256296H708.48663703z m-503.2922074 305.83466666c-106.79940741-53.3997037-184.22897778-171.24314075-184.22897778-272.33848888 0-18.44717037 15.04900741-33.49617778 33.49617778-33.49617778 18.56853333 0 33.49617778 15.04900741 33.49617778 33.49617778 0 92.59994075 105.22168889 234.35188148 234.71597037 234.35188148 129.61564445 0 234.71597037-141.75194075 234.71597037-234.35188148 0-18.44717037 15.04900741-33.49617778 33.49617777-33.49617778 18.56853333 0 33.49617778 15.04900741 33.49617778 33.49617778 0 101.09534815-77.42957037 218.93878518-184.22897778 272.33848888 50.60835555 36.53025185 83.61908148 95.87674075 83.61908149 162.8690963 0 110.68302222-90.29404445 200.8557037-201.21979259 200.8557037s-201.21979259-90.05131852-201.2197926-200.8557037c0.36408889-66.99235555 33.25345185-126.33884445 83.86180741-162.8690963z m117.60071112 28.88438519c-74.03140741 0-134.10607408 59.9533037-134.10607408 133.86334815 0 73.78868148 60.07466667 133.86334815 134.10607408 133.86334815s134.10607408-60.07466667 134.10607407-133.86334815c0.12136297-73.78868148-59.9533037-133.86334815-134.10607407-133.86334815z m0 0"  horiz-adv-x="1024" />

    
    <glyph glyph-name="arrow-r" unicode="&#58893;" d="M356.28301783 664.05654363c-8.60283496-8.15536792-8.60283496-21.38854485-1e-8-29.54456391l264.07733751-250.51393378-264.07733751-250.50481527c-8.60283496-8.16057831-8.60283495-21.38919599 0-29.54977493 8.59827571-8.15992717 22.54401335-8.15992717 31.14228906 0l275.06992161 260.97112016c0 0 11.67257762 10.81542049 11.67257762 19.08346941 0 7.6199702-11.67257761 19.08802865-11.67257762 19.08802865L387.42595802 664.05654363C378.82703117 672.21712193 364.88129353 672.21712194 356.28301783 664.05654363z"  horiz-adv-x="1024" />

    
    <glyph glyph-name="biaoqingbao" unicode="&#59388;" d="M149.974904 21.974904A508.499426 508.499426 0 0 0 0.002133 384.000213a508.670092 508.670092 0 0 0 149.972771 362.025309A508.627426 508.627426 0 0 0 512.000213 895.998293a508.627426 508.627426 0 0 0 362.025309-149.972771A508.755426 508.755426 0 0 0 1023.998293 384.000213a508.627426 508.627426 0 0 0-149.930104-362.025309A508.627426 508.627426 0 0 0 512.000213-127.997867a508.627426 508.627426 0 0 0-362.025309 149.972771zM42.66864 384.000213a469.843571 469.843571 0 0 1 469.331573-469.331573 466.046252 466.046252 0 0 1 331.817423 137.428818A466.131585 466.131585 0 0 1 981.331787 384.000213a466.131585 466.131585 0 0 1-137.514151 331.860089A466.216918 466.216918 0 0 1 512.000213 853.331787 469.843571 469.843571 0 0 1 42.66864 384.000213z m213.332533-42.666506a42.666507 42.666507 0 0 0 42.666507 42.666506h426.665067a42.666507 42.666507 0 0 0 42.666506-42.666506 256.255039 256.255039 0 0 0-255.99904-255.99904 256.297706 256.297706 0 0 0-255.99904 255.99904z m383.99856 234.665786A63.99976 63.99976 0 0 0 703.999493 639.999253 63.99976 63.99976 0 0 0 767.999253 575.999493 63.99976 63.99976 0 0 0 703.999493 511.999733 63.99976 63.99976 0 0 0 639.999733 575.999493z m-383.99856 0A63.99976 63.99976 0 0 0 320.000933 639.999253 63.99976 63.99976 0 0 0 384.000693 575.999493 63.99976 63.99976 0 0 0 320.000933 511.999733 63.99976 63.99976 0 0 0 256.001173 575.999493z"  horiz-adv-x="1024" />

    
    <glyph glyph-name="hulianwang" unicode="&#59033;" d="M511.961475 895.999744A511.961475 511.961475 0 0 1 29.181804 552.729575H25.598074v-9.215306a509.657648 509.657648 0 0 1 0-318.951999v-9.215307h3.58373A511.961475 511.961475 0 1 1 511.961475 895.999744z m78.074125-58.363608l21.502382-4.095692c7.679422-1.535884 15.358844-3.58373 22.782285-5.631576l20.73444-6.143538c7.423441-2.303827 14.590902-5.119615 21.758363-7.935403l19.710517-7.935403c7.167461-3.071769 13.82296-6.655499 20.734439-9.983248s12.799037-6.143538 18.942575-9.727268 13.055018-7.679422 19.454536-11.775114 12.031095-7.423441 17.662671-11.519133 12.287075-8.959326 18.430613-13.56698l16.382767-12.799036 17.15071-15.614825c4.863634-4.607653 10.239229-9.215307 15.102863-14.078941s10.239229-11.519133 15.358844-17.150709 9.471287-10.239229 13.82296-15.614825 9.215307-12.287075 13.82296-18.686594 8.191384-10.751191 12.031095-16.382767 8.447364-13.566979 12.287075-20.222479 7.167461-11.519133 10.49521-17.40669 6.91148-14.590902 10.49521-22.014343 5.887557-11.775114 8.447365-17.918652 2.047846-5.887557 3.071769-8.703345h-195.057322A639.951844 639.951844 0 0 1 576.980582 839.683982zM716.746065 384.038269a593.875311 593.875311 0 0 0-11.775114-117.495158H318.951999a592.083446 592.083446 0 0 0 0 234.990317h386.018952A593.875311 593.875311 0 0 0 716.746065 384.038269zM511.961475 830.212694a585.171966 585.171966 0 0 0 180.46642-277.483119H332.774959a585.171966 585.171966 0 0 0 179.186516 277.483119zM86.77747 561.43292c2.559807 6.143538 5.631576 12.031095 8.447364 17.918652s6.655499 14.846883 10.495211 22.014343 6.91148 11.519133 10.49521 17.40669 7.935403 13.566979 11.775114 21.246402 7.935403 11.007172 12.031094 16.382767 8.959326 12.799037 13.82296 18.686594 9.215307 10.49521 13.82296 15.614825 9.983249 11.519133 15.358844 17.150709 10.239229 9.471287 15.102864 14.078941l17.150709 15.614825 16.382767 12.799036c6.143538 4.607653 12.031095 9.471287 18.430613 13.566979s11.775114 7.679422 17.662671 11.519134 12.799037 8.191384 19.454536 11.775114 12.543056 6.655499 18.942575 9.727268 13.566979 6.91148 20.73444 9.983248l19.710517 7.935403c7.167461 2.815788 14.334921 5.631576 21.758362 7.935403s13.82296 4.095692 20.73444 6.143538 15.102864 4.095692 22.782286 5.631576l23.294247 3.071769 13.055017 2.047846a639.951844 639.951844 0 0 1-168.179344-286.954407H83.705701c1.023923 2.815788 1.791865 5.887557 3.071769 8.703345z m-21.758363-286.954407c-1.535884 5.887557-3.32775 11.775114-4.607653 17.918652s-3.071769 19.710517-4.607653 29.693766c0 5.119615-1.791865 10.239229-2.303827 15.358844C51.196147 352.808619 51.196147 368.423444 51.196147 384.038269s0 31.22965 2.303827 46.588494c0 5.119615 1.791865 10.239229 2.303827 15.358845 1.535884 9.983249 2.559807 19.966498 4.607653 29.693765s3.071769 12.031095 4.607653 17.918652a71.930587 71.930587 0 0 0 2.047846 7.935403h199.664975a647.375285 647.375285 0 0 1 0-234.990317h-199.664975a71.930587 71.930587 0 0 0-2.047846 7.935402zM435.167254-69.559598l-21.502382 4.095692c-7.679422 1.535884-15.358844 3.58373-22.782286 5.631576l-20.73444 6.143538c-7.423441 2.303827-14.590902 5.119615-21.758362 7.935403l-19.710517 7.935403c-7.167461 3.071769-13.82296 6.655499-20.73444 9.983249s-12.799037 6.143538-18.942574 9.727268-13.055018 7.679422-19.454536 11.775114-13.566979 6.399518-18.942575 11.519133-12.287075 8.959326-18.430613 13.566979l-16.382767 12.799037-17.15071 15.614825c-4.863634 4.607653-10.239229 9.215307-15.102863 14.07894s-10.239229 11.519133-15.358844 17.15071-9.471287 10.239229-13.82296 15.614825-9.215307 12.287075-13.82296 18.686593-8.191384 10.751191-12.543056 15.358845-8.447364 13.566979-12.287076 20.222478-7.167461 11.519133-10.49521 17.40669-6.91148 14.590902-10.49521 22.014343-5.887557 11.775114-8.447364 17.918652-2.047846 5.887557-3.071769 8.703345h195.057322a639.951844 639.951844 0 0 1 168.691306-285.930484z m76.794221 7.423442a585.171966 585.171966 0 0 0-179.186516 277.483119h360.932839A585.171966 585.171966 0 0 0 511.961475-62.136156z m425.184005 268.779774c-2.559807-6.143538-5.631576-12.031095-8.447365-17.918652s-6.655499-14.846883-10.49521-22.014343-6.91148-11.519133-10.49521-17.40669-7.935403-13.566979-12.287075-20.222478-7.935403-11.007172-12.031095-16.382768-8.959326-12.799037-13.82296-18.686593-9.215307-10.49521-13.82296-15.614825-9.983249-11.519133-15.358844-17.15071-10.239229-9.471287-15.102863-14.07894l-17.15071-15.614825-16.382767-12.799037c-6.143538-4.607653-12.031095-9.471287-18.430613-13.566979s-11.775114-7.679422-17.662671-11.519133-12.799037-8.191384-19.454536-11.775114-12.543056-6.655499-18.942575-9.727268-13.566979-6.91148-20.734439-9.983249l-19.710517-7.935403c-7.167461-2.815788-14.334921-5.631576-21.758363-7.935403l-20.73444-6.143538c-7.423441-2.047846-15.102864-4.095692-22.782285-5.631576l-21.502382-4.095692-13.055018-2.047846a639.951844 639.951844 0 0 1 168.179345 286.954407h195.057322c-1.023923-2.815788-1.791865-5.887557-3.071769-8.703345z m30.973669 115.447313c-1.535884-9.983249-2.559807-19.966498-4.607653-29.693766s-3.071769-12.031095-4.607654-17.918652a71.930587 71.930587 0 0 0-2.047845-7.935402h-199.664976a647.375285 647.375285 0 0 1 0 234.990317h199.664976a71.930587 71.930587 0 0 0 2.047845-7.935403c1.535884-5.887557 3.32775-11.775114 4.607654-17.918652s3.071769-19.710517 4.607653-29.693765c0-5.119615 1.791865-10.239229 2.303827-15.358845 1.535884-15.358844 2.303827-30.973669 2.303826-46.588494s0-31.22965-2.303826-46.588494c-0.511961-4.607653-1.791865-10.239229-2.303827-15.358844z"  horiz-adv-x="1024" />

    
    <glyph glyph-name="fabu-wenjian" unicode="&#58836;" d="M891.84-12.928H127.552A95.808 95.808 0 0 0 32 82.592V703.584a95.808 95.808 0 0 0 95.552 95.552h274.656c65.664-17.92 52.544-51.36 95.552-95.552l29.824-47.744H891.84a95.808 95.808 0 0 0 95.52-95.552v-477.696a95.808 95.808 0 0 0-95.52-95.52zM170.464 208.352a46.144 46.144 0 0 1 0-92.32h683.072a46.144 46.144 0 1 1 0 92.32H170.464z"  horiz-adv-x="1024" />

    
    <glyph glyph-name="zhiwang" unicode="&#58892;" d="M628.736 35.328c-156.672-40.96-276.48 11.264-360.448 90.624-56.32 52.736-91.648 116.224-113.664 192-18.944 65.024-17.408 135.168-17.408 204.288 0 35.84 21.504 117.248 28.16 149.504-44.032-69.12-97.28-196.096-97.28-283.648 0-244.736 198.656-443.392 443.392-443.392 109.056 0 228.864 82.944 286.208 167.424-110.08-50.176-91.136-56.832-168.96-76.8zM778.752 769.536c-50.176 29.696-107.008 49.664-168.448 57.344-201.728 25.6-430.08-104.448-452.096-305.152 95.232 187.392 241.152 259.584 415.744 237.056 55.296-7.168 107.52-24.064 154.112-49.152l50.688 59.904zM587.776 133.12c-1.024-0.512-2.048-1.024-3.072-2.56-2.048-2.56-3.072-9.216-4.096-12.288-1.024-2.048-7.168-10.24-7.168-11.776 0-1.536 2.048-3.584 4.096-5.632-11.264-2.048-22.528-3.584-34.304-4.608 2.048 2.56 2.56 5.12-4.096 5.632 2.048 5.12 6.144 8.192 8.192 12.8 1.024 2.56 0 3.072 1.024 5.632 2.56 7.68 1.536 5.12 0 11.264 0 0.512-0.512 1.024-0.512 2.048h-166.4v289.28c-1.024 0.512-3.072 2.56-5.632 5.632-7.68 10.24-16.384 20.48-23.04 31.232-2.56 4.096-2.048 6.656-6.144 10.752-4.096 3.584-9.216 5.632-12.8 9.216-14.336 12.8-16.896 30.208-15.36 48.128 0.512 6.144 2.56 10.752 1.536 16.384-1.024 4.608-3.584 8.704-7.168 12.288-1.024 2.048-4.096 6.144-4.096 6.656-3.072 5.12-5.632 10.752-10.752 14.848-3.072 2.56-10.752 8.704-17.92 13.312 32.256 40.448 74.752 72.192 122.88 92.16 0.512-2.56 1.536-5.12 3.072-7.168 4.096-6.144 7.68-5.632 15.36-7.168-1.024-9.216-11.264-9.216-18.432-8.192-8.704 1.024-17.408 4.096-25.088-3.584 4.096-2.56 15.36-11.776 13.824-2.048 8.192 0.512 15.872 0.512 24.064-0.512 3.072-0.512 13.824-4.096 16.896-2.56 1.024 0.512 2.56 6.656 3.584 8.704-2.048 0-4.608 1.024-7.168 1.024 5.12 6.656 10.752 1.536 17.408-1.536-7.168-4.608-3.072-15.36 4.096-6.656 6.144 7.168-1.536 12.288-9.216 16.896 7.68 9.728 12.288 10.24 19.456-0.512 1.024 6.656 6.656 4.096 12.288 3.584v1.536c-2.56 0-5.12 1.536-7.68 1.024 5.632 9.216 2.048 11.264 10.24 14.336 6.656 2.56 25.088 0 27.136 6.144-12.8-2.56-28.672-3.072-40.448-9.216-5.12-2.56-11.264-10.752-15.872-5.12-5.12 5.12 3.584 13.824 8.192 16.384h-1.024c20.992 4.608 41.984 6.656 63.488 6.656 14.336 0 28.16-1.024 41.472-3.072-4.608-2.56-1.024-4.096-4.608-6.656-6.656-4.608-17.92-8.704-26.112-11.776 9.728 0 33.792-9.216 38.4 4.608-3.072 0.512-6.144 1.024-9.728 1.536 6.144 4.096 12.8 7.168 19.456 9.728 62.976-12.288 119.296-44.544 161.792-89.088h-1.024c-11.776-0.512-19.968-0.512-29.696-7.168-4.096-2.56-6.656-6.144-11.264-7.68-4.608-1.024-9.216 0-13.312-1.536-15.872-5.12-13.312-38.912-33.792-33.792-9.728 2.56-16.384 13.824-21.504 21.504-4.096 6.656-12.288 12.288-6.656 20.48-2.56-0.512-5.12 0-7.168-0.512 3.072 7.168 14.336 6.656 16.384 10.24 4.608 9.216-12.8 10.24-17.408 11.776 5.632 6.144 8.704-2.048 14.848-0.512 5.632 1.536-3.072 8.704-6.144 9.728-1.024 0.512-20.992-5.632-9.728 4.608-13.824 8.704-28.16 17.92-41.984 26.624-2.56-9.728 18.944-15.872 25.6-18.944-1.024-4.096-7.68-10.24-12.288-8.192-4.608 1.536-2.56 9.216-9.728 8.704-5.12-11.776 10.752-8.192 11.776-15.36 1.536-8.192-5.632-4.608-8.704-4.608-0.512 0-6.144 5.632-6.144 1.536-0.512-5.12 8.704-3.072 9.216-8.192-10.24-0.512-15.872 3.584-24.064 8.704-9.728 6.656-14.848 6.144-27.136 6.144 3.584 1.536 8.704 2.56 11.776 5.12 1.536 1.536 8.192 7.68 8.704 9.216 2.048 6.144 0 5.632-6.144 9.728-5.12 3.584-11.776 10.24-17.92 11.264-23.04 4.608-7.168-20.992-24.576-24.576h1.024-1.024c-4.096 0-11.776 1.024-14.336-1.024-2.048-1.536-2.048-7.68-4.096-9.728-3.584-4.096-9.216-4.608-13.312-7.68-4.096-2.56-13.824-9.728-16.384-14.848-9.216-17.92 20.992-23.04 32.256-28.672 5.12-2.56 20.48-5.632 23.04-9.216 3.584-5.12-3.072-10.24 4.608-13.824 2.56-1.024 7.68-1.536 9.728 1.024 3.584 4.096-1.536 5.12-2.048 9.216-1.536 8.704 1.024 5.12 5.632 8.704 9.216 6.656 7.168 7.168 3.584 17.92-1.536 5.12-7.168 18.944-2.048 22.528 6.656 4.608 20.48-2.56 25.6-3.072 5.632-0.512 9.216-8.704 12.288-12.288 2.048-2.048 6.144-6.656 9.728-6.144 5.632 1.024 3.584 6.144 6.656 8.192 9.216 6.144 11.776-2.048 15.36-10.752 3.584-8.192 6.656-11.264 12.8-16.384 3.072-2.56 15.36-11.264 13.824-16.384-1.024-3.584-14.848-9.216-18.944-10.24-13.824-4.608-39.936 7.168-42.496-14.848 5.12 2.048 20.48 14.336 25.088 8.704 2.048-2.56-1.536-6.656-1.024-9.216 2.56-8.192 8.704-5.12 15.36-4.096-0.512-0.512-1.024-0.512-1.536-0.512 8.704 4.608 7.68 3.584 11.776 10.752 1.536 2.56 3.072 8.192 5.12 9.728 6.656 6.144 7.168 2.048 11.264-2.56 1.024-1.024 10.752-15.36 7.168-14.848-11.264 2.048-22.528 2.048-31.744-4.096-5.632-3.584-10.752-8.704-16.896-10.752-1.536-0.512-13.312-1.536-11.776 0.512 2.048 3.072 8.704 4.608 11.776 7.68-7.68 3.072-13.824-3.584-19.456-7.68-4.096-2.048-6.144-5.12-8.704-8.704h286.72c-46.592 135.68-175.104 232.96-326.144 232.96-190.464 0-345.088-154.624-345.088-345.088s154.624-345.088 345.088-345.088c82.432 0 158.208 29.184 217.6 77.312l-147.968 0.512zM361.984 458.24c-1.024 0.512 2.56-8.704 3.072-9.216 3.584-6.656 9.216-12.8 13.312-18.944 1.024-1.536 2.048-3.072 2.56-4.096v15.36c-6.656 7.68-8.704 14.848-18.944 16.896z m326.144-289.792h-80.384v154.624c0 45.056-16.384 67.072-48.64 67.072-15.36 0-28.16-6.144-38.4-17.92s-15.36-27.136-15.36-45.568V168.448h-80.896v277.504h80.896v-44.032h1.024c20.48 33.792 50.176 50.688 89.088 50.688 61.44 0 92.16-37.888 92.16-114.176l0.512-169.984z m63.488 145.408l99.328 132.608h-70.656l-79.36-116.224c-2.56-4.096-5.12-9.216-7.68-14.848h-1.024v-10.752h1.024c2.56-6.656 5.12-11.264 7.168-14.336l83.968-121.344h74.752l-107.52 144.896zM871.424 395.776c0 13.312 4.096 24.064 11.776 32.768 8.192 8.192 18.432 12.8 30.72 12.8 12.8 0 23.04-4.096 31.232-12.8 7.68-8.704 11.776-19.456 11.776-32.256 0-13.312-4.096-24.064-12.288-32.768-8.192-8.704-18.432-13.312-30.72-13.312s-22.528 4.608-30.72 13.312c-8.192 8.192-11.776 18.944-11.776 32.256z m20.992-225.792v159.232h46.08v-159.232h-46.08z"  horiz-adv-x="1024" />

    
    <glyph glyph-name="weixing" unicode="&#59069;" d="M1024 260.096c0 141.824-141.824 257.536-301.568 257.536-168.96 0-302.08-115.712-302.08-257.536 0-142.336 132.608-257.536 302.08-257.536 35.328 0 71.168 9.216 106.496 17.408l97.28-53.248-26.624 88.576c71.168 53.76 124.416 124.928 124.416 204.8z m-399.36 44.032c-17.408 0-35.328 17.408-35.328 35.328 0 17.408 17.92 35.328 35.328 35.328 26.624 0 44.544-17.92 44.544-35.328s-17.92-35.328-44.544-35.328z m195.584 0c-17.408 0-35.328 17.408-35.328 35.328 0 17.408 17.408 35.328 35.328 35.328 26.624 0 44.544-17.92 44.544-35.328-0.512-17.408-18.432-35.328-44.544-35.328z m-126.976 244.736c11.776 0 23.552-1.024 34.816-2.048-31.232 145.92-187.392 254.464-365.568 254.464C163.328 801.28 0 665.6 0 493.056c0-99.328 54.272-181.248 144.896-244.736l-36.352-109.056 126.976 63.488c45.568-8.704 81.92-17.92 126.976-17.92 11.264 0 22.528 0.512 33.792 1.536a266.048 266.048 0 0 0-11.264 75.776c0 158.208 136.192 286.72 308.224 286.72z m-195.072 98.304c27.136 0 45.568-17.92 45.568-45.568 0-27.136-17.92-45.568-45.568-45.568-27.136 0-54.784 17.92-54.784 45.568 0.512 27.648 27.648 45.568 54.784 45.568z m-253.952-90.624c-27.136 0-54.784 17.92-54.784 45.568 0 27.136 27.136 45.568 54.784 45.568 27.136 0 45.568-17.92 45.568-45.568 0-27.136-17.92-45.568-45.568-45.568z"  horiz-adv-x="1024" />

    
    <glyph glyph-name="tubiaozhizuomoban" unicode="&#58942;" d="M618.7 579.5c85.3 16.3 171 31.2 255.9 49.2 63.9 13.6 89.5-6.2 86.1-74.4-4.7-94.4-6.3-189.6 0.4-283.8 5.6-78.5-26.5-104.7-99.9-115-157.2-22.2-310-62.6-451.5-138.1h-22.8c-43.7 57.8-33.8 121.3-20.1 185.1 4.5 11.3 11.8 20.8 21.5 28.1 75.2 24.4 136-33.8 215.5-38.1 9.9 119.2 3.3 237.9 1.9 356.6 0.8 11.7 5.1 21.8 13 30.4zM618.7 579.5c-3.6-3.8-5.5-8.4-5.8-13.6C471.2 497.7 399.8 382.8 388.5 228l-1.6-6.1c-115.7-18.7-223 1-319.7 69.5 0 121.8 6.2 244-2.2 365.2-5.5 79 15.4 108.8 93.6 91.5 156.4-47.9 322.3-70 460.1-168.6zM388.5 228c-0.1 11.3-0.3 22.6-0.3 33.9 0 228.6 0 228.6 224.8 303.9 54.8-126.3 14.2-258.5 22.9-387.7C639 130 602.3 152.4 580 160c-64.1 21.9-127.7 45.2-191.5 68z"  horiz-adv-x="1024" />

    
    <glyph glyph-name="qiyerenzheng" unicode="&#59058;" d="M512 384m-512 0a512 512 0 1 1 1024 0 512 512 0 1 1-1024 0ZM653.232356 271.36h-10.24V414.72a40.96 40.96 0 0 1-40.96 40.96h-61.44V281.6c0-5.540978-4.699022-10.24-10.24-10.24a10.387911 10.387911 0 0 0-10.24 10.24V476.16a40.96 40.96 0 0 1-40.96 40.96h-61.44a40.96 40.96 0 0 1-40.96-40.96v-204.367644h-10.24c-5.552356 0-10.24-4.699022-10.24-10.24 0-5.552356 4.687644-10.24 10.24-10.24h286.287644c5.552356 0 10.24 4.687644 10.24 10.24 0.432356 5.540978-4.266667 9.807644-9.807644 9.807644z m-184.32 40.96h-40.96a10.387911 10.387911 0 0 0-10.24 10.24c0 5.552356 4.687644 10.24 10.24 10.24h40.96c5.540978 0 10.24-4.687644 10.24-10.24 0-5.540978-4.278044-10.24-10.24-10.24z m0 61.44h-40.96a10.387911 10.387911 0 0 0-10.24 10.24c0 5.552356 4.687644 10.24 10.24 10.24h40.96c5.540978 0 10.24-4.687644 10.24-10.24 0-5.540978-4.278044-10.24-10.24-10.24z m0 61.44h-40.96a10.387911 10.387911 0 0 0-10.24 10.24c0 5.552356 4.687644 10.24 10.24 10.24h40.96c5.540978 0 10.24-4.687644 10.24-10.24 0-5.540978-4.278044-10.24-10.24-10.24z m143.36-122.88h-40.96a10.387911 10.387911 0 0 0-10.24 10.24c0 5.552356 4.687644 10.24 10.24 10.24h40.96c5.540978 0 10.24-4.687644 10.24-10.24 0-5.540978-4.699022-10.24-10.24-10.24z m0 61.44h-40.96a10.387911 10.387911 0 0 0-10.24 10.24c0 5.552356 4.687644 10.24 10.24 10.24h40.96c5.540978 0 10.24-4.687644 10.24-10.24 0-5.540978-4.699022-10.24-10.24-10.24z m168.527644 10.24c0-150.607644-121.173333-273.066667-270.939022-273.066667C360.106667 110.933333 238.933333 233.392356 238.933333 384c0 150.619022 121.173333 273.066667 270.939023 273.066667 149.754311 0 270.927644-122.447644 270.927644-273.066667z"  horiz-adv-x="1024" />

    
    <glyph glyph-name="xiaoxi" unicode="&#58889;" d="M932.571 859.429h-768A90.697 90.697 0 0 1 73.143 768v-581.486a91.429 91.429 0 0 1 91.428-95.085H321.83V-40.23a50.103 50.103 0 0 1 51.2-51.2 65.097 65.097 0 0 1 36.57 14.63l168.229 168.229h351.085a90.697 90.697 0 0 1 91.429 91.428V768a85.577 85.577 0 0 1-87.772 91.429zM661.943 318.17H266.97a47.543 47.543 0 0 0 0 95.086h394.972a47.543 47.543 0 0 0 0-95.086zM830.17 537.6h-563.2a46.08 46.08 0 0 0-47.542 47.543 48.274 48.274 0 0 0 47.542 47.543h563.2a48.274 48.274 0 0 0 47.543-47.543A46.08 46.08 0 0 0 830.17 537.6z"  horiz-adv-x="1097" />

    
    <glyph glyph-name="QQ" unicode="&#58894;" d="M512 896C230.4 896 0 665.6 0 384s230.4-512 512-512 512 230.4 512 512c0 135.68-53.76 266.24-151.04 360.96S647.68 896 512 896z m258.56-673.28c-17.92-15.36-43.52 53.76-48.64 43.52-7.68-25.6-20.48-51.2-38.4-71.68-2.56-2.56 30.72-12.8 38.4-35.84 7.68-23.04 25.6-58.88-81.92-69.12-64-7.68-107.52 33.28-112.64 33.28H499.2c-2.56 0-23.04-33.28-115.2-33.28-71.68 0-92.16 46.08-76.8 69.12 15.36 25.6 38.4 33.28 35.84 35.84-15.36 17.92-28.16 38.4-35.84 58.88-2.56 5.12-2.56 7.68-5.12 12.8-2.56 10.24-23.04-58.88-43.52-43.52-23.04 15.36-17.92 56.32-5.12 94.72s48.64 76.8 51.2 84.48c2.56 30.72-2.56 35.84 0 43.52 7.68 17.92 15.36 10.24 15.36 20.48 0 117.76 89.6 215.04 199.68 215.04s199.68-97.28 199.68-215.04c0-5.12 12.8 0 17.92-20.48 2.56-15.36 2.56-28.16 0-43.52 0-10.24 30.72-25.6 46.08-84.48s-5.12-87.04-12.8-94.72z"  horiz-adv-x="1024" />

    
    <glyph glyph-name="yuyin" unicode="&#58896;" d="M511.468776 894.934443c-281.946306 0-511.467222-229.520916-511.467222-511.467221s229.520916-511.467222 511.467222-511.467222 511.467222 229.520916 511.467221 511.467222-229.307804 511.467222-511.467221 511.467221z m0-982.017065c-259.356504 0-470.549844 210.980229-470.549844 470.549844 0 259.356504 211.19334 470.549844 470.549844 470.549844 259.569615 0 470.549844-211.19334 470.549843-470.549844 0-259.569615-210.980229-470.549844-470.549843-470.549844zM345.668151 383.467222m-42.622268 0a42.622268 42.622268 0 1 1 85.244537 0 42.622268 42.622268 0 1 1-85.244537 0ZM559.84505 412.237253a212.173652 212.173652 0 0 1-68.834963 135.538814 21.247201 21.247201 0 1 1-28.55692-31.540479 169.338273 169.338273 0 0 0 54.982726-108.473673c6.39334-60.31051-20.245578-119.981686-69.261186-155.784392-9.59001-6.819563-11.721124-20.245578-4.68845-29.835588a21.524246 21.524246 0 0 1 29.835588-4.688449c61.162955 44.753382 94.408325 119.342352 86.523205 194.783767zM610.991772 640.266389a21.247201 21.247201 0 1 1-28.556919-31.540478c52.851613-47.950052 86.096982-113.375234 93.555879-184.341312 10.655567-102.506556-34.310926-203.947555-117.850572-264.684287a21.311134 21.311134 0 1 1 12.573569-38.573153c4.262227 0 8.737565 1.278668 12.573569 4.049116 95.686993 69.474298 147.473049 185.833091 135.112591 303.470551-8.737565 81.408533-46.884495 156.636837-107.408117 211.619563z"  horiz-adv-x="1024" />

    


  </font>
</defs>
</svg>
